PathFileType	4	(X/Y/Z)	./resultDataOpenSim/trcMotMarkerGrf/sub06/qtm-15-04.trc
DataRate	CameraRate	NumFrames	NumMarkers	Units	OrigDataRate	OrigDataStartFrame	OrigNumFrames
250.000000	250.000000	14	24	m	250.000000	334	533
Frame#	Time	L.Toe.Tip			R.Toe.Tip			L.Ankle.Lat			R.Ankle.Lat			L.Ankle.Med			R.Ankle.Med			L.Heel			R.Heel			L.Knee.Lat			R.Knee.Lat			L.Knee.Med			R.Knee.Med			L.Thigh.Upper			R.Thigh.Upper			L.ASIS			R.ASIS			V.Sacral			L.Acromium			R.Acromium			C7			L.Elbow			R.Elbow			L.Wrist.Lat			R.Wrist.Lat
		X1	Y1	Z1	X2	Y2	Z2	X3	Y3	Z3	X4	Y4	Z4	X5	Y5	Z5	X6	Y6	Z6	X7	Y7	Z7	X8	Y8	Z8	X9	Y9	Z9	X10	Y10	Z10	X11	Y11	Z11	X12	Y12	Z12	X13	Y13	Z13	X14	Y14	Z14	X15	Y15	Z15	X16	Y16	Z16	X17	Y17	Z17	X18	Y18	Z18	X19	Y19	Z19	X20	Y20	Z20	X21	Y21	Z21	X22	Y22	Z22	X23	Y23	Z23	X24	Y24	Z24

334	1.332	0.49174168	0.1398896	-0.080552134	0.97455385	0.035330252	0.033808965	0.51454102	0.26826623	-0.1179185	0.83898016	0.058585233	0.060915045	0.54256412	0.27200273	-0.037780211	0.85763945	0.082847245	-0.025452807	0.4794381	0.33310367	-0.064875422	0.78182656	0.040357391	0.0030790997	0.86214043	0.38416069	-0.18614766	0.94144735	0.43008884	0.11229933	0.87061679	0.37277877	-0.057981686	0.9045989	0.42673084	-0.009032787	0.74670849	0.75677691	-0.1506904	0.79901724	0.78023006	0.18944037	0.82555998	0.80954658	-0.12003245	0.87254573	0.83329216	0.1233272	0.66659242	0.89725016	0.031595151	0.82694192	1.2960611	-0.17965285	0.8344868	1.2822256	0.18042487	0.75580251	1.3356832	0.0003347105	0.8791672	0.97590378	-0.2465161	0.71748542	0.99267179	0.27072584	1.111906	0.90181004	-0.19127687	0.86582317	0.79911236	0.31639528
335	1.336	0.50436181	0.14317055	-0.081558066	0.97450225	0.035336237	0.033710911	0.52681686	0.27171168	-0.11864292	0.83881008	0.058677902	0.06101539	0.55485824	0.27533525	-0.038551483	0.85752242	0.083037042	-0.025388327	0.49144478	0.33634306	-0.065568487	0.78175124	0.040514006	0.0031352174	0.87412463	0.38883114	-0.18618051	0.9417393	0.43050709	0.11216978	0.88224624	0.377261	-0.057875497	0.90476495	0.42699885	-0.0093311333	0.75347755	0.75973896	-0.15083309	0.8046056	0.78269487	0.18946866	0.8314488	0.81265181	-0.11889101	0.87780464	0.83645584	0.12377362	0.67218749	0.89978	0.031394326	0.83201684	1.298654	-0.17977727	0.83908875	1.2854217	0.18047004	0.76081333	1.338064	0.00010086397	0.88089347	0.97777366	-0.2461962	0.72505282	0.99411831	0.27087187	1.1126419	0.89934937	-0.19357412	0.87940339	0.80443027	0.31397888
336	1.34	0.5171318	0.14622098	-0.082633402	0.97445316	0.03534437	0.033600464	0.53902874	0.27497076	-0.11933574	0.83864185	0.058799721	0.061116843	0.56703865	0.27849194	-0.039268075	0.85741194	0.083229463	-0.025327452	0.50337618	0.33928993	-0.066269201	0.78168017	0.040679138	0.0031926357	0.88600096	0.39354284	-0.18611595	0.94194706	0.43092588	0.11194814	0.89373978	0.38180871	-0.057693134	0.90491047	0.42732264	-0.009674261	0.76025242	0.76270436	-0.15103964	0.81028847	0.78510774	0.18947691	0.83738009	0.81574379	-0.11772356	0.8828644	0.83945842	0.12403268	0.67767088	0.90232689	0.03115226	0.83712398	1.3012149	-0.17988564	0.84369536	1.2886107	0.18051713	0.76584095	1.3404367	-0.00015090184	0.88256603	0.97960266	-0.24593693	0.73264464	0.99558871	0.27097847	1.1132277	0.89693396	-0.1958632	0.89278669	0.80991988	0.31148769
337	1.344	0.53003647	0.14904249	-0.083702686	0.97441538	0.035350334	0.033473282	0.55119798	0.27803618	-0.1200077	0.83853022	0.058933083	0.061198252	0.57910597	0.28147699	-0.039934607	0.85731933	0.083427467	-0.025267917	0.51520105	0.34194822	-0.066953955	0.78161856	0.040856476	0.0032515068	0.89776332	0.39829354	-0.18597875	0.94208264	0.43134409	0.11167101	0.90498843	0.38643266	-0.057399308	0.90484437	0.4277489	-0.009964234	0.76702765	0.76569154	-0.15125664	0.81578616	0.78743093	0.18949369	0.84352113	0.81883296	-0.11661107	0.88774831	0.84229679	0.12412828	0.68294486	0.9049086	0.030874191	0.84226249	1.3037253	-0.17997921	0.84830982	1.2917864	0.18056697	0.7707817	1.342892	-0.00035648374	0.88420319	0.98143668	-0.24577921	0.74026599	0.99707962	0.27105006	1.1136704	0.89456545	-0.19813622	0.90602418	0.81557342	0.30895765
338	1.348	0.5430589	0.15163601	-0.084710286	0.97439591	0.035351971	0.033327007	0.56333687	0.28090313	-0.1206677	0.83848258	0.059070238	0.061259659	0.59111463	0.28427681	-0.040583432	0.85724775	0.08363712	-0.025202864	0.52690857	0.34434009	-0.067606598	0.78156957	0.041048289	0.0033160552	0.90941547	0.4030683	-0.18577697	0.94216426	0.43176581	0.11136987	0.91589041	0.3911395	-0.056970594	0.90451038	0.42828779	-0.010142091	0.77380797	0.76875268	-0.15144869	0.82102446	0.78965506	0.18952435	0.84985306	0.8219245	-0.11559247	0.89264678	0.84502807	0.12418622	0.68793966	0.90754281	0.030583761	0.84742115	1.3061651	-0.18006159	0.85293348	1.2949409	0.18061954	0.77562794	1.3454313	-0.00050278735	0.88583677	0.98333589	-0.24570097	0.747927	0.99858779	0.27109504	1.1139743	0.89224403	-0.20038517	0.91915308	0.82137187	0.30642467
339	1.352	0.55620475	0.15400176	-0.085689276	0.97439743	0.035350915	0.033168116	0.57544532	0.28356463	-0.12132134	0.83848395	0.059211514	0.061314656	0.60309931	0.28688115	-0.041232333	0.8571922	0.08386593	-0.025122029	0.5385117	0.3464786	-0.06822537	0.78153491	0.041257045	0.003395303	0.92096199	0.40785129	-0.18551282	0.94220955	0.43219359	0.11106803	0.92646866	0.39592473	-0.056437885	0.90405933	0.42890569	-0.010248571	0.78059948	0.77192725	-0.15160956	0.82612391	0.7917909	0.1895409	0.85625334	0.82501613	-0.11475945	0.89768369	0.8476832	0.1242953	0.69272573	0.91021318	0.030314432	0.85259589	1.3085331	-0.1801326	0.85756502	1.2980641	0.180674	0.78043736	1.3479966	-0.00061653197	0.88748982	0.98532246	-0.24561768	0.75563409	1.0001094	0.27112479	1.1141397	0.88996876	-0.20260163	0.93215895	0.82728225	0.30389241
340	1.356	0.56949701	0.15613729	-0.086718472	0.97441699	0.035349281	0.033010675	0.58751085	0.28601127	-0.12196877	0.83852945	0.059356071	0.061376132	0.61505889	0.28928476	-0.041876	0.85714252	0.084119861	-0.025016851	0.55002957	0.3483577	-0.068824745	0.78151443	0.041487336	0.0034993961	0.93240042	0.4126373	-0.18519797	0.94223132	0.43262536	0.11077899	0.93693943	0.40076556	-0.055882407	0.90350558	0.4295946	-0.01038894	0.78739976	0.77517679	-0.15176024	0.83123295	0.79385001	0.18949498	0.86262971	0.82808963	-0.11419829	0.90282024	0.85023043	0.12444855	0.69754835	0.91285298	0.030089415	0.85779826	1.3108553	-0.18018635	0.86220407	1.3011462	0.18073165	0.78525452	1.3505463	-0.00072167852	0.88916649	0.98737754	-0.24545628	0.76338188	1.0016416	0.27115033	1.1141696	0.88773631	-0.20477916	0.9450115	0.83329125	0.30134225
341	1.36	0.58295176	0.15803998	-0.087838617	0.97444685	0.035347781	0.032868267	0.59952855	0.28823048	-0.12261511	0.83861819	0.059502384	0.061453005	0.62697619	0.2914817	-0.042506247	0.85708896	0.084400608	-0.024884795	0.56146906	0.34996492	-0.069423502	0.78150429	0.041745456	0.0036347737	0.94372571	0.41742365	-0.18483822	0.94223693	0.43305876	0.11051106	0.94763113	0.40561514	-0.055362681	0.90263687	0.43039588	-0.010630865	0.79419792	0.77841882	-0.15192595	0.83638635	0.79581701	0.18937567	0.86896668	0.83112074	-0.11384933	0.90795782	0.85261862	0.12460067	0.70264713	0.91539483	0.029912902	0.86303616	1.3131599	-0.18021514	0.8668497	1.304179	0.18079423	0.79007691	1.3530863	-0.00082211641	0.8908581	0.98947493	-0.24521945	0.77115666	1.0031854	0.27117829	1.1140729	0.88554388	-0.20691246	0.95771103	0.83941323	0.29875598
342	1.364	0.59656587	0.15971182	-0.089041789	0.97447693	0.035347225	0.032747968	0.61153763	0.29020282	-0.12328643	0.83872922	0.059655753	0.061552506	0.638843	0.29346421	-0.043130135	0.8570281	0.084706422	-0.02472784	0.57282912	0.35129096	-0.070040014	0.78149657	0.042037413	0.0038011539	0.95493344	0.42220263	-0.18443048	0.94223188	0.43349682	0.11027595	0.95878001	0.41042784	-0.054883384	0.9014684	0.43130835	-0.010943967	0.80098223	0.781612	-0.15211565	0.84142653	0.79763183	0.18927416	0.8752888	0.83409843	-0.11355193	0.91307048	0.8548391	0.12474136	0.70806945	0.91782514	0.029782052	0.86829751	1.3154543	-0.18021538	0.8714974	1.307159	0.1808607	0.79486835	1.3556526	-0.00091194936	0.89255362	0.99159893	-0.24496356	0.77894753	1.0047441	0.27120963	1.113859	0.88339425	-0.20899854	0.97028778	0.8456639	0.29611877
343	1.368	0.61032086	0.16115805	-0.090309432	0.97449758	0.035349071	0.03265114	0.62362736	0.29190681	-0.1240258	0.83881998	0.059827654	0.06168034	0.65068628	0.29522078	-0.043775835	0.85696302	0.085038065	-0.024545305	0.5841181	0.3523253	-0.070700369	0.78148326	0.042365998	0.0039927535	0.96601765	0.42696433	-0.18397717	0.94222422	0.43394707	0.11008882	0.97030853	0.41521061	-0.054435817	0.900362	0.43223475	-0.011250838	0.80774571	0.78476133	-0.15233159	0.84617696	0.79925121	0.18929747	0.88160282	0.83702371	-0.11321309	0.91822025	0.85692532	0.12490058	0.71372058	0.92017005	0.029713332	0.87356165	1.3177306	-0.18019049	0.87614437	1.3100882	0.1809288	0.79960823	1.3582519	-0.00098980677	0.89424973	0.99374532	-0.24473203	0.78675305	1.0063184	0.27124376	1.1135322	0.88129334	-0.21104019	0.98277054	0.85204764	0.29341928
344	1.372	0.62419117	0.16238053	-0.091626001	0.97450124	0.035354002	0.03257772	0.63587351	0.29333152	-0.12486387	0.83885785	0.060025082	0.061838621	0.66256917	0.29673737	-0.044481252	0.85689784	0.08540371	-0.024329931	0.59535576	0.35305545	-0.071436929	0.78146218	0.042728489	0.0042028478	0.97696923	0.43170107	-0.18348658	0.942225	0.43441525	0.10996167	0.98184554	0.42001435	-0.053994174	0.89957762	0.43306329	-0.011511824	0.81448604	0.78787462	-0.15258412	0.85073751	0.8007382	0.18938828	0.88787873	0.8398942	-0.11286209	0.92346942	0.85890347	0.12509303	0.71953003	0.92245308	0.029766177	0.87882008	1.3199786	-0.180149	0.88079588	1.3129719	0.18099893	0.80432459	1.3608136	-0.0010578043	0.89595509	0.99592017	-0.24452239	0.79457479	1.0079024	0.27128223	1.1130961	0.8792445	-0.21304357	0.99514967	0.85856756	0.29066031
345	1.376	0.6381522	0.1633755	-0.092966024	0.97448381	0.035361716	0.03252808	0.64827131	0.2944829	-0.12579784	0.8388485	0.060245765	0.062025118	0.67454262	0.29801075	-0.045257606	0.85683609	0.085813253	-0.02407438	0.60655572	0.35348357	-0.072258122	0.7814379	0.043120438	0.0044277063	0.9877728	0.4364104	-0.18296532	0.94224424	0.43490448	0.10990016	0.99306196	0.42485872	-0.05348859	0.89910066	0.43375615	-0.01172499	0.82120144	0.79095354	-0.15288446	0.85535049	0.80220297	0.1893744	0.89408784	0.84270727	-0.11256463	0.92882516	0.86077591	0.12528808	0.72550978	0.92468193	0.030022857	0.88407774	1.3221878	-0.18009707	0.88546028	1.3158129	0.18107309	0.80906232	1.3632442	-0.001115415	0.89768348	0.99813225	-0.24430377	0.80240689	1.0094858	0.27132762	1.1125575	0.87724797	-0.21501265	1.0073673	0.86522808	0.28785723
346	1.38	0.65219794	0.16414123	-0.094299569	0.97444674	0.035371871	0.032501285	0.66073588	0.2953773	-0.12678768	0.83882627	0.060487738	0.062237226	0.68655928	0.29905641	-0.046052678	0.85678381	0.086266938	-0.023780817	0.61772189	0.35363345	-0.073131134	0.78141645	0.04354573	0.0046676103	0.99840948	0.44109262	-0.18242211	0.94228692	0.43541897	0.10990691	1.0039201	0.42970008	-0.052836545	0.89886875	0.43434822	-0.011888135	0.82788964	0.79400377	-0.15323006	0.86005534	0.80366715	0.18918037	0.90026904	0.84548141	-0.11232732	0.93425131	0.86254372	0.12545019	0.73165496	0.92685523	0.030476935	0.88933541	1.3243496	-0.18003199	0.89013994	1.3186071	0.18114978	0.81383702	1.3655247	-0.0011579857	0.89944283	1.0003836	-0.24405564	0.81023907	1.0110588	0.27138182	1.1119244	0.87530181	-0.21694702	1.0193693	0.87201628	0.28502222
347	1.384	0.66637777	0.16468901	-0.095635511	0.9743978	0.035383816	0.032494314	0.67311764	0.29603066	-0.1277423	0.83882371	0.060759612	0.062476333	0.69846079	0.29989084	-0.046782346	0.85674812	0.086755597	-0.02346101	0.62885951	0.353525	-0.074022249	0.78140207	0.044018505	0.0049235142	1.0089029	0.44573859	-0.18185818	0.94235176	0.43596168	0.10998236	1.0145959	0.43447472	-0.051977384	0.89884827	0.4349066	-0.012010887	0.83455373	0.79702516	-0.15359811	0.86472637	0.80506769	0.18887441	0.90651281	0.84824348	-0.11209852	0.93965907	0.86421224	0.1255946	0.73783131	0.92896858	0.030932923	0.89458072	1.32646	-0.17994719	0.89483103	1.3213412	0.18122308	0.81863678	1.3677016	-0.0011726506	0.9012323	1.0026675	-0.24379278	0.81806841	1.0126144	0.27144692	1.1112004	0.87340407	-0.21884606	1.031152	0.8788865	0.28216458
